# xmcd
#
# Track frame offsets:
#	150
#	15808
#	30619
#	45707
#	59938
#	74444
#	89628
#	104896
#	121225
#	136524
#	150826
#	164571
#	179180
#	193873
#	209263
#
# Disc length: 3002 seconds
#
# Revision: 1
# Processed by: cddbd v1.5.2PL0 Copyright (c) Steve Scherf et al.
# Submitted via: audiograbber 1.83.01
#
DISCID=da0bb80f
DTITLE=йафамтфидгс [2001] бов 01 - г фыг лоу окг [1950s] 1
DYEAR=2001
DGENRE=
TTITLE0=SYNNEFIASMENH KYRIAKH
TTITLE1=аутг г мувта лемеи
TTITLE2=тыяа поу жеуцы ап' тг фыг
TTITLE3=ламтоулпака
TTITLE4=хессакомийг лоу
TTITLE5=фицйоуака
TTITLE6=аспяо поуйалисо цжояы
TTITLE7=сто адеио пяосйежаки
TTITLE8=жеуцы ле пийяа ста нема
TTITLE9=сгйы вояеье йоуйки лоу
TTITLE10=ап' та ьгка ста валгка
TTITLE11=еисаи г фыг лоу
TTITLE12=циа лпамио паы
TTITLE13=тетоиа йоуйка йаи тсавп╨ма
TTITLE14=ои бакитсес
EXTD=
EXTT0=
EXTT1=
EXTT2=
EXTT3=
EXTT4=
EXTT5=
EXTT6=
EXTT7=
EXTT8=
EXTT9=
EXTT10=
EXTT11=
EXTT12=
EXTT13=
EXTT14=
PLAYORDER=
